<mxfile host="app.diagrams.net" agent="Mozilla/5.0 (X11; Ubuntu; Linux x86_64; rv:133.0) Gecko/20100101 Firefox/133.0" version="25.0.3">
  <diagram name="Page-1" id="j58UOS0ZNg7UJjVvFhl4">
    <mxGraphModel dx="1350" dy="781" grid="1" gridSize="10" guides="1" tooltips="1" connect="1" arrows="1" fold="1" page="1" pageScale="1" pageWidth="850" pageHeight="1100" math="0" shadow="0">
      <root>
        <mxCell id="0" />
        <mxCell id="1" parent="0" />
        <mxCell id="WsyISZbgLVUZe-RSWzhI-1" value="ParkingLot" style="swimlane;fontStyle=0;childLayout=stackLayout;horizontal=1;startSize=30;horizontalStack=0;resizeParent=1;resizeParentMax=0;resizeLast=0;collapsible=1;marginBottom=0;whiteSpace=wrap;html=1;" vertex="1" parent="1">
          <mxGeometry x="414" y="550" width="296" height="720" as="geometry" />
        </mxCell>
        <mxCell id="WsyISZbgLVUZe-RSWzhI-2" value="ID: INT" style="text;strokeColor=none;fillColor=none;align=left;verticalAlign=middle;spacingLeft=4;spacingRight=4;overflow=hidden;points=[[0,0.5],[1,0.5]];portConstraint=eastwest;rotatable=0;whiteSpace=wrap;html=1;" vertex="1" parent="WsyISZbgLVUZe-RSWzhI-1">
          <mxGeometry y="30" width="296" height="30" as="geometry" />
        </mxCell>
        <mxCell id="WsyISZbgLVUZe-RSWzhI-3" value="FID: VARCHAR" style="text;strokeColor=none;fillColor=none;align=left;verticalAlign=middle;spacingLeft=4;spacingRight=4;overflow=hidden;points=[[0,0.5],[1,0.5]];portConstraint=eastwest;rotatable=0;whiteSpace=wrap;html=1;" vertex="1" parent="WsyISZbgLVUZe-RSWzhI-1">
          <mxGeometry y="60" width="296" height="30" as="geometry" />
        </mxCell>
        <mxCell id="WsyISZbgLVUZe-RSWzhI-4" value="GEOMETRY: GEOMETRY" style="text;strokeColor=none;fillColor=none;align=left;verticalAlign=middle;spacingLeft=4;spacingRight=4;overflow=hidden;points=[[0,0.5],[1,0.5]];portConstraint=eastwest;rotatable=0;whiteSpace=wrap;html=1;" vertex="1" parent="WsyISZbgLVUZe-RSWzhI-1">
          <mxGeometry y="90" width="296" height="30" as="geometry" />
        </mxCell>
        <mxCell id="WsyISZbgLVUZe-RSWzhI-5" value="BEZEICHNUNG: VARCHAR" style="text;strokeColor=none;fillColor=none;align=left;verticalAlign=middle;spacingLeft=4;spacingRight=4;overflow=hidden;points=[[0,0.5],[1,0.5]];portConstraint=eastwest;rotatable=0;whiteSpace=wrap;html=1;" vertex="1" parent="WsyISZbgLVUZe-RSWzhI-1">
          <mxGeometry y="120" width="296" height="30" as="geometry" />
        </mxCell>
        <mxCell id="WsyISZbgLVUZe-RSWzhI-6" value="KAPAZITAET: INT" style="text;strokeColor=none;fillColor=none;align=left;verticalAlign=middle;spacingLeft=4;spacingRight=4;overflow=hidden;points=[[0,0.5],[1,0.5]];portConstraint=eastwest;rotatable=0;whiteSpace=wrap;html=1;" vertex="1" parent="WsyISZbgLVUZe-RSWzhI-1">
          <mxGeometry y="150" width="296" height="30" as="geometry" />
        </mxCell>
        <mxCell id="WsyISZbgLVUZe-RSWzhI-7" value="TYP: VARCHAR" style="text;strokeColor=none;fillColor=none;align=left;verticalAlign=middle;spacingLeft=4;spacingRight=4;overflow=hidden;points=[[0,0.5],[1,0.5]];portConstraint=eastwest;rotatable=0;whiteSpace=wrap;html=1;" vertex="1" parent="WsyISZbgLVUZe-RSWzhI-1">
          <mxGeometry y="180" width="296" height="30" as="geometry" />
        </mxCell>
        <mxCell id="WsyISZbgLVUZe-RSWzhI-8" value="ANSPRECHPARTNER_NAME: VARCHAR" style="text;strokeColor=none;fillColor=none;align=left;verticalAlign=middle;spacingLeft=4;spacingRight=4;overflow=hidden;points=[[0,0.5],[1,0.5]];portConstraint=eastwest;rotatable=0;whiteSpace=wrap;html=1;" vertex="1" parent="WsyISZbgLVUZe-RSWzhI-1">
          <mxGeometry y="210" width="296" height="30" as="geometry" />
        </mxCell>
        <mxCell id="WsyISZbgLVUZe-RSWzhI-9" value="BELEGUNG_TENDENZ: VARCHAR" style="text;strokeColor=none;fillColor=none;align=left;verticalAlign=middle;spacingLeft=4;spacingRight=4;overflow=hidden;points=[[0,0.5],[1,0.5]];portConstraint=eastwest;rotatable=0;whiteSpace=wrap;html=1;" vertex="1" parent="WsyISZbgLVUZe-RSWzhI-1">
          <mxGeometry y="240" width="296" height="30" as="geometry" />
        </mxCell>
        <mxCell id="WsyISZbgLVUZe-RSWzhI-10" value="ANMERKUNGEN: VARCHAR" style="text;strokeColor=none;fillColor=none;align=left;verticalAlign=middle;spacingLeft=4;spacingRight=4;overflow=hidden;points=[[0,0.5],[1,0.5]];portConstraint=eastwest;rotatable=0;whiteSpace=wrap;html=1;" vertex="1" parent="WsyISZbgLVUZe-RSWzhI-1">
          <mxGeometry y="270" width="296" height="30" as="geometry" />
        </mxCell>
        <mxCell id="WsyISZbgLVUZe-RSWzhI-11" value="FREIE_PLAETZE_ABSOLUT: INT" style="text;strokeColor=none;fillColor=none;align=left;verticalAlign=middle;spacingLeft=4;spacingRight=4;overflow=hidden;points=[[0,0.5],[1,0.5]];portConstraint=eastwest;rotatable=0;whiteSpace=wrap;html=1;" vertex="1" parent="WsyISZbgLVUZe-RSWzhI-1">
          <mxGeometry y="300" width="296" height="30" as="geometry" />
        </mxCell>
        <mxCell id="WsyISZbgLVUZe-RSWzhI-24" value="FREIE_PLAETZE_PROZENT: INT" style="text;strokeColor=none;fillColor=none;align=left;verticalAlign=middle;spacingLeft=4;spacingRight=4;overflow=hidden;points=[[0,0.5],[1,0.5]];portConstraint=eastwest;rotatable=0;whiteSpace=wrap;html=1;" vertex="1" parent="WsyISZbgLVUZe-RSWzhI-1">
          <mxGeometry y="330" width="296" height="30" as="geometry" />
        </mxCell>
        <mxCell id="WsyISZbgLVUZe-RSWzhI-12" value="TARIF: VARCHAR" style="text;strokeColor=none;fillColor=none;align=left;verticalAlign=middle;spacingLeft=4;spacingRight=4;overflow=hidden;points=[[0,0.5],[1,0.5]];portConstraint=eastwest;rotatable=0;whiteSpace=wrap;html=1;" vertex="1" parent="WsyISZbgLVUZe-RSWzhI-1">
          <mxGeometry y="360" width="296" height="30" as="geometry" />
        </mxCell>
        <mxCell id="WsyISZbgLVUZe-RSWzhI-13" value="OEFFNUNGSZEITEN: VARCHAR" style="text;strokeColor=none;fillColor=none;align=left;verticalAlign=middle;spacingLeft=4;spacingRight=4;overflow=hidden;points=[[0,0.5],[1,0.5]];portConstraint=eastwest;rotatable=0;whiteSpace=wrap;html=1;" vertex="1" parent="WsyISZbgLVUZe-RSWzhI-1">
          <mxGeometry y="390" width="296" height="30" as="geometry" />
        </mxCell>
        <mxCell id="WsyISZbgLVUZe-RSWzhI-14" value="ANSPRECHPARTNER_URL: VARCHAR" style="text;strokeColor=none;fillColor=none;align=left;verticalAlign=middle;spacingLeft=4;spacingRight=4;overflow=hidden;points=[[0,0.5],[1,0.5]];portConstraint=eastwest;rotatable=0;whiteSpace=wrap;html=1;" vertex="1" parent="WsyISZbgLVUZe-RSWzhI-1">
          <mxGeometry y="420" width="296" height="30" as="geometry" />
        </mxCell>
        <mxCell id="WsyISZbgLVUZe-RSWzhI-15" value="DATENQUELLE_URL: VARCHAR" style="text;strokeColor=none;fillColor=none;align=left;verticalAlign=middle;spacingLeft=4;spacingRight=4;overflow=hidden;points=[[0,0.5],[1,0.5]];portConstraint=eastwest;rotatable=0;whiteSpace=wrap;html=1;" vertex="1" parent="WsyISZbgLVUZe-RSWzhI-1">
          <mxGeometry y="450" width="296" height="30" as="geometry" />
        </mxCell>
        <mxCell id="WsyISZbgLVUZe-RSWzhI-16" value="BELEGUNG_AKTUALISIERT: DATE" style="text;strokeColor=none;fillColor=none;align=left;verticalAlign=middle;spacingLeft=4;spacingRight=4;overflow=hidden;points=[[0,0.5],[1,0.5]];portConstraint=eastwest;rotatable=0;whiteSpace=wrap;html=1;" vertex="1" parent="WsyISZbgLVUZe-RSWzhI-1">
          <mxGeometry y="480" width="296" height="30" as="geometry" />
        </mxCell>
        <mxCell id="WsyISZbgLVUZe-RSWzhI-17" value="EMAIL: VARCHAR" style="text;strokeColor=none;fillColor=none;align=left;verticalAlign=middle;spacingLeft=4;spacingRight=4;overflow=hidden;points=[[0,0.5],[1,0.5]];portConstraint=eastwest;rotatable=0;whiteSpace=wrap;html=1;" vertex="1" parent="WsyISZbgLVUZe-RSWzhI-1">
          <mxGeometry y="510" width="296" height="30" as="geometry" />
        </mxCell>
        <mxCell id="WsyISZbgLVUZe-RSWzhI-18" value="ADRESSE: VARCHAR" style="text;strokeColor=none;fillColor=none;align=left;verticalAlign=middle;spacingLeft=4;spacingRight=4;overflow=hidden;points=[[0,0.5],[1,0.5]];portConstraint=eastwest;rotatable=0;whiteSpace=wrap;html=1;" vertex="1" parent="WsyISZbgLVUZe-RSWzhI-1">
          <mxGeometry y="540" width="296" height="30" as="geometry" />
        </mxCell>
        <mxCell id="WsyISZbgLVUZe-RSWzhI-19" value="DATENQUELLE_NAME: VARCHAR" style="text;strokeColor=none;fillColor=none;align=left;verticalAlign=middle;spacingLeft=4;spacingRight=4;overflow=hidden;points=[[0,0.5],[1,0.5]];portConstraint=eastwest;rotatable=0;whiteSpace=wrap;html=1;" vertex="1" parent="WsyISZbgLVUZe-RSWzhI-1">
          <mxGeometry y="570" width="296" height="30" as="geometry" />
        </mxCell>
        <mxCell id="WsyISZbgLVUZe-RSWzhI-20" value="TELEFON: VARCHAR" style="text;strokeColor=none;fillColor=none;align=left;verticalAlign=middle;spacingLeft=4;spacingRight=4;overflow=hidden;points=[[0,0.5],[1,0.5]];portConstraint=eastwest;rotatable=0;whiteSpace=wrap;html=1;" vertex="1" parent="WsyISZbgLVUZe-RSWzhI-1">
          <mxGeometry y="600" width="296" height="30" as="geometry" />
        </mxCell>
        <mxCell id="WsyISZbgLVUZe-RSWzhI-21" value="URL: VARCHAR" style="text;strokeColor=none;fillColor=none;align=left;verticalAlign=middle;spacingLeft=4;spacingRight=4;overflow=hidden;points=[[0,0.5],[1,0.5]];portConstraint=eastwest;rotatable=0;whiteSpace=wrap;html=1;" vertex="1" parent="WsyISZbgLVUZe-RSWzhI-1">
          <mxGeometry y="630" width="296" height="30" as="geometry" />
        </mxCell>
        <mxCell id="WsyISZbgLVUZe-RSWzhI-22" value="FREIE_PLAETZE_STATUS: INT" style="text;strokeColor=none;fillColor=none;align=left;verticalAlign=middle;spacingLeft=4;spacingRight=4;overflow=hidden;points=[[0,0.5],[1,0.5]];portConstraint=eastwest;rotatable=0;whiteSpace=wrap;html=1;" vertex="1" parent="WsyISZbgLVUZe-RSWzhI-1">
          <mxGeometry y="660" width="296" height="30" as="geometry" />
        </mxCell>
        <mxCell id="WsyISZbgLVUZe-RSWzhI-23" value="FAX: VARCHAR" style="text;strokeColor=none;fillColor=none;align=left;verticalAlign=middle;spacingLeft=4;spacingRight=4;overflow=hidden;points=[[0,0.5],[1,0.5]];portConstraint=eastwest;rotatable=0;whiteSpace=wrap;html=1;" vertex="1" parent="WsyISZbgLVUZe-RSWzhI-1">
          <mxGeometry y="690" width="296" height="30" as="geometry" />
        </mxCell>
      </root>
    </mxGraphModel>
  </diagram>
</mxfile>
